<?xml version="1.0" standalone="no"?>
<!DOCTYPE svg PUBLIC "-//W3C//DTD SVG 20010904//EN"
 "http://www.w3.org/TR/2001/REC-SVG-20010904/DTD/svg10.dtd">
<svg version="1.0" xmlns="http://www.w3.org/2000/svg"
 width="175.000000pt" height="175.000000pt" viewBox="0 0 175.000000 175.000000"
 preserveAspectRatio="xMidYMid meet">
<metadata>
Created by potrace 1.11, written by Peter Selinger 2001-2013
</metadata>
<g transform="translate(0.000000,175.000000) scale(0.100000,-0.100000)"
fill="#000000" stroke="none">
<path d="M1227 1068 c8 -35 16 -70 17 -78 2 -8 12 -16 23 -18 18 -3 22 4 28
40 12 73 22 77 35 15 9 -45 15 -57 31 -57 12 0 21 9 25 28 3 15 12 51 19 80
12 48 12 53 -3 50 -11 -2 -20 -19 -26 -46 -5 -23 -12 -42 -16 -42 -4 0 -11 20
-14 45 -6 39 -10 45 -32 45 -13 0 -24 -6 -24 -12 0 -7 -5 -31 -12 -53 l-12
-40 -11 50 c-7 32 -17 51 -27 53 -15 3 -15 -2 -1 -60z"/>
<path d="M1435 1053 l1 -78 43 -3 c33 -3 49 2 65 17 30 28 32 80 5 114 -17 22
-28 27 -67 27 l-47 0 0 -77z m91 33 c19 -51 5 -86 -34 -86 -25 0 -27 3 -26 40
1 22 2 45 3 50 2 15 51 12 57 -4z"/>
<path d="M342 1075 c-161 -74 -176 -303 -25 -392 147 -86 322 10 329 180 4 86
-26 143 -105 197 -42 29 -149 37 -199 15z"/>
<path d="M955 1022 c-1 -1 -59 -3 -127 -3 -149 0 -173 -9 -144 -54 24 -37 26
-198 2 -224 -45 -50 7 -91 64 -51 46 32 57 65 59 165 2 87 11 119 26 95 4 -7
8 -53 7 -102 0 -67 -4 -93 -16 -107 -45 -50 7 -92 64 -51 26 18 61 68 60 85 0
3 0 32 0 65 0 57 1 60 24 60 16 0 27 7 31 21 11 34 17 15 19 -60 1 -59 -2 -71
-16 -75 -23 -5 -24 -52 -2 -60 9 -3 42 -6 74 -6 68 0 97 18 80 51 -6 10 -15
19 -20 19 -6 0 -10 34 -9 78 0 58 3 71 10 54 7 -18 15 -23 36 -20 26 3 28 7
31 52 2 27 -1 53 -6 58 -9 9 -239 18 -247 10z"/>
</g>
</svg>
