<?xml version="1.0" standalone="no"?>
<!DOCTYPE svg PUBLIC "-//W3C//DTD SVG 20010904//EN"
 "http://www.w3.org/TR/2001/REC-SVG-20010904/DTD/svg10.dtd">
<svg version="1.0" xmlns="http://www.w3.org/2000/svg"
 width="175.000000pt" height="175.000000pt" viewBox="0 0 175.000000 175.000000"
 preserveAspectRatio="xMidYMid meet">
<metadata>
Created by potrace 1.11, written by Peter Selinger 2001-2013
</metadata>
<g transform="translate(0.000000,175.000000) scale(0.100000,-0.100000)"
fill="#000000" stroke="none">
<path d="M406 1695 c-10 -8 -23 -12 -27 -9 -5 3 -19 -2 -32 -11 -13 -8 -27
-12 -32 -8 -4 5 -5 2 -1 -4 7 -12 -6 -18 -29 -13 -5 1 -6 -2 -2 -6 4 -4 -1
-13 -12 -18 -36 -20 -101 -87 -95 -98 4 -6 3 -8 -3 -5 -5 3 -20 -15 -34 -41
-13 -26 -26 -49 -29 -52 -7 -7 -13 -32 -12 -53 0 -9 -3 -15 -8 -12 -4 3 -8
-42 -9 -100 -1 -79 2 -105 11 -105 9 0 8 -3 -2 -10 -12 -7 -12 -10 -1 -10 7 0
11 -6 8 -13 -3 -7 1 -21 9 -31 7 -11 11 -23 8 -27 -3 -5 0 -9 5 -9 6 0 11 -7
11 -16 0 -8 4 -12 10 -9 6 3 7 -1 4 -9 -4 -10 -1 -16 7 -16 7 0 10 -3 6 -6 -8
-8 106 -124 121 -124 7 0 12 -5 12 -11 0 -5 4 -8 9 -5 5 4 11 3 13 -1 1 -5 18
-16 36 -25 21 -11 31 -13 27 -5 -4 6 1 3 9 -7 9 -11 16 -16 16 -12 0 5 6 4 13
-1 12 -10 207 -11 238 -2 10 3 24 11 33 18 13 11 16 11 16 0 0 -9 3 -10 8 -4
4 6 24 19 46 30 21 11 40 26 43 32 3 7 8 11 12 8 19 -11 141 147 144 186 1 10
5 19 10 19 5 0 7 7 3 15 -3 8 -1 15 3 15 5 0 12 7 15 16 4 10 2 13 -7 8 -8 -6
-8 -3 1 8 18 22 14 204 -4 219 -7 6 -11 16 -8 23 3 8 -3 16 -13 20 -15 6 -15
8 -3 16 11 7 12 10 2 10 -7 0 -10 5 -7 10 3 6 1 10 -4 10 -6 0 -11 6 -11 14 0
7 -11 25 -25 40 -13 14 -22 26 -19 26 3 0 -1 6 -8 14 -7 8 -16 12 -19 10 -3
-2 -12 8 -19 21 -7 13 -17 22 -21 19 -4 -2 -15 6 -23 18 -9 12 -16 19 -16 16
0 -4 -21 4 -46 17 -26 14 -50 23 -54 20 -4 -3 -10 1 -13 8 -7 19 -212 24 -235
5 -11 -9 -14 -10 -8 0 9 15 6 15 -18 -3z"/>
<path d="M1066 883 c4 -15 7 -33 7 -40 0 -7 3 -13 7 -13 3 0 7 -14 8 -31 1
-17 7 -39 12 -49 5 -10 11 -32 12 -49 1 -17 6 -31 10 -31 4 0 7 -3 7 -7 -5
-31 3 -43 24 -39 12 3 27 5 32 5 6 1 17 29 25 64 7 34 15 69 18 77 2 8 5 25 6
37 2 33 26 7 26 -29 0 -16 3 -27 8 -25 4 3 8 -9 9 -26 1 -18 5 -48 10 -67 7
-28 14 -35 35 -37 15 -1 32 5 39 13 6 8 9 14 6 14 -3 0 2 26 12 58 9 31 16 64
16 72 0 8 3 18 8 21 5 4 10 23 11 42 0 19 4 39 9 43 14 15 6 24 -21 24 -24 0
-30 -6 -39 -35 -6 -19 -7 -33 -2 -30 4 3 2 -10 -6 -30 -9 -19 -12 -35 -8 -35
4 0 2 -5 -4 -11 -6 -6 -9 -18 -6 -27 4 -9 1 -13 -6 -11 -7 3 -12 7 -11 9 1 3
-3 17 -9 33 -6 15 -6 27 -2 27 5 0 3 13 -5 29 -8 15 -15 40 -16 55 -2 25 -5
27 -43 24 -32 -2 -40 -7 -41 -23 -1 -11 -6 -31 -11 -45 -6 -14 -13 -42 -17
-62 -7 -39 -25 -61 -27 -34 -2 28 -6 56 -9 59 -1 1 -4 15 -6 32 -3 16 -11 36
-17 44 -10 12 -9 13 3 6 13 -8 13 -7 1 8 -7 9 -24 17 -37 17 -22 0 -24 -3 -18
-27z"/>
<path d="M1464 880 c2 -17 -1 -33 -6 -36 -5 -3 -4 -12 3 -20 9 -11 8 -14 -2
-14 -12 0 -12 -2 0 -9 10 -7 11 -13 1 -31 -8 -15 -8 -20 -1 -16 13 9 14 -4 2
-23 -6 -9 -6 -22 -1 -31 5 -9 5 -22 0 -30 -5 -8 -5 -21 0 -30 14 -27 200 -15
200 13 0 6 8 19 17 29 22 24 27 155 6 162 -7 3 -13 11 -13 19 0 27 -56 47
-134 47 l-76 0 4 -30z m144 -35 c21 -7 23 -11 25 -57 1 -13 6 -27 11 -31 8 -6
7 -10 -1 -14 -7 -2 -13 -15 -13 -27 0 -26 -49 -46 -90 -36 -22 5 -25 12 -25
48 -1 23 4 42 10 42 6 0 7 3 0 8 -5 4 -11 21 -12 39 -2 23 2 33 15 36 21 5 49
2 80 -8z"/>
<path d="M620 721 c-8 -4 -55 -7 -105 -6 -52 1 -104 -4 -122 -11 -24 -10 -34
-10 -42 -1 -8 10 -125 15 -191 8 -25 -3 -51 -27 -55 -54 -5 -24 29 -82 44 -73
3 2 6 -75 5 -171 l-1 -175 -33 -29 c-18 -16 -29 -29 -25 -29 4 0 3 -6 -4 -13
-8 -10 -7 -17 1 -25 7 -7 8 -12 4 -12 -12 0 46 -45 59 -45 13 -1 52 16 91 40
39 24 96 106 83 121 -5 6 -4 15 4 23 8 8 12 58 13 162 0 82 4 153 8 157 11 10
29 9 41 -2 12 -10 14 -274 2 -293 -4 -6 -3 -14 2 -18 6 -3 6 -16 -1 -35 -5
-17 -13 -28 -18 -25 -13 8 -32 -23 -35 -56 -2 -20 4 -38 16 -50 11 -11 19 -16
19 -12 0 4 5 2 11 -4 8 -8 20 -8 43 -1 42 15 106 60 106 76 0 6 4 12 10 12 5
0 15 18 21 40 7 22 15 40 18 40 3 0 6 53 7 118 l0 117 31 0 c32 0 73 29 73 52
0 7 6 13 13 13 10 0 12 -29 11 -122 -2 -148 0 -138 -20 -138 -23 0 -43 -24
-39 -46 2 -10 4 -26 4 -35 2 -36 67 -47 242 -40 39 2 68 34 64 71 -5 35 -24
59 -43 52 -15 -5 -14 -13 -16 131 -1 134 10 195 18 100 2 -19 19 -31 51 -35
47 -7 80 18 77 57 -1 6 -3 39 -5 74 -2 51 -7 67 -25 82 -21 16 -55 20 -77 7
-14 -7 -276 -3 -300 5 -11 3 -27 3 -35 -2z"/>
</g>
</svg>
